<?xml version="1.0" encoding="utf-8"?>
<!DOCTYPE svg PUBLIC "-//W3C//DTD SVG 1.1//EN" "http://www.w3.org/Graphics/SVG/1.1/DTD/svg11.dtd">
<svg width="80" height="80" xmlns="http://www.w3.org/2000/svg"><defs><linearGradient x1="0%" y1="50%" y2="50%" id="a"><stop stop-color="#00F2FE" offset="0%"/><stop stop-color="#03EFFE" offset="2.08%"/><stop stop-color="#24D2FE" offset="29.31%"/><stop stop-color="#3CBDFE" offset="55.38%"/><stop stop-color="#4AB0FE" offset="79.56%"/><stop stop-color="#4FACFE" offset="100%"/></linearGradient></defs><g fill-rule="nonzero" fill="none"><path d="M40 0c22.091 0 40 17.909 40 40S62.091 80 40 80 0 62.091 0 40 17.909 0 40 0z" fill="#FFF"/><path d="M46.055 37.168a1.953 1.953 0 1 1 3.906 0 1.953 1.953 0 0 1-3.906 0zm4.199 4.98a1.953 1.953 0 1 0 0 3.907 1.953 1.953 0 0 0 0-3.907zM47.52 53.184a1.953 1.953 0 1 0 0-3.907 1.953 1.953 0 0 0 0 3.907zM33.848 37.168a1.953 1.953 0 1 0-3.907 0 1.953 1.953 0 0 0 3.907 0zm-6.055 7.031a1.953 1.953 0 1 0 3.906 0 1.953 1.953 0 0 0-3.906 0zm4.687 8.985a1.953 1.953 0 1 0 0-3.907 1.953 1.953 0 0 0 0 3.907zm27.38-8.692a24.593 24.593 0 0 1-.625 4.084c.092.25.311.745.73 1.22.733.834 1.742 1.24 3.082 1.24a1.953 1.953 0 1 1 0 3.905c-2.392 0-4.14-.837-5.367-1.923a22.93 22.93 0 0 1-1.91 3.33 1.953 1.953 0 1 1-3.213-2.223c2.263-3.271 3.459-7.21 3.459-11.39 0-1-.088-2.026-.26-3.055-.85-5.077-5.233-8.762-10.422-8.762H34.666c-5.19 0-9.572 3.685-10.422 8.762a18.56 18.56 0 0 0-.26 3.054c0 9.366 6.15 17.115 14.063 18.223V36.484a1.953 1.953 0 1 1 3.906 0v24.474a14.29 14.29 0 0 0 4.695-1.518 1.953 1.953 0 1 1 1.814 3.46C45.805 64.292 42.958 65 40 65c-5.367 0-10.398-2.347-14.169-6.609a22.377 22.377 0 0 1-3.502-5.353c-1.244 1.075-3 1.903-5.376 1.903a1.953 1.953 0 1 1 0-3.906c2.531 0 3.524-1.585 3.848-2.322a24.665 24.665 0 0 1-.661-4.22h-3.187a1.953 1.953 0 1 1 0-3.907h3.233c.05-.516.119-1.034.205-1.55a14.29 14.29 0 0 1 .534-2.147c-.102-.336-.913-2.65-3.972-2.65a1.953 1.953 0 1 1 0-3.907c2.84 0 4.796 1.184 6.047 2.558a14.407 14.407 0 0 1 2.327-2.48 14.536 14.536 0 0 1 6.24-3.062c.148-1.514.633-3.961 2.177-5.922-.603-.995-1.794-2.52-3.412-2.52a1.953 1.953 0 0 1 0-3.906c3.308 0 5.444 2.37 6.553 4.078.947-.371 1.993-.562 3.115-.562s2.168.191 3.115.562C44.225 17.37 46.36 15 49.668 15a1.953 1.953 0 0 1 0 3.906c-1.618 0-2.808 1.525-3.412 2.52 1.544 1.96 2.03 4.408 2.178 5.922a14.537 14.537 0 0 1 6.239 3.063 14.382 14.382 0 0 1 2.347 2.505c1.226-1.387 3.167-2.584 6.027-2.584a1.953 1.953 0 0 1 0 3.906c-1.34 0-2.349.406-3.083 1.24-.587.667-.783 1.379-.785 1.386l.006-.025-.138-.033c.245.724.434 1.469.562 2.23.086.516.154 1.034.205 1.55h3.233a1.953 1.953 0 1 1 0 3.906H59.86zm-38.935-7.604l.002-.008-.004.002.002.006zM40 22.422c-1.229 0-2.174.354-2.89 1.082-.907.922-1.352 2.347-1.553 3.508h8.886c-.202-1.161-.646-2.586-1.552-3.508-.717-.728-1.662-1.082-2.891-1.082z" fill="url(#a)"/></g></svg>